<svg width="32" height="32" viewBox="0 0 32 32" fill="none" xmlns="http://www.w3.org/2000/svg">
<path d="M8.32 21.76H5.76C4.9113 21.76 4.09737 21.4229 3.49726 20.8227C2.89714 20.2226 2.56 19.4087 2.56 18.56V14.72C2.56 13.8713 2.89714 13.0574 3.49726 12.4573C4.09737 11.8571 4.9113 11.52 5.76 11.52H8.32C8.48974 11.52 8.65252 11.5874 8.77254 11.7075C8.89257 11.8275 8.96 11.9903 8.96 12.16V21.12C8.96 21.2897 8.89257 21.4525 8.77254 21.5726C8.65252 21.6926 8.48974 21.76 8.32 21.76ZM5.76 12.8C5.25078 12.8 4.76242 13.0023 4.40235 13.3624C4.04228 13.7224 3.84 14.2108 3.84 14.72V18.56C3.84 19.0692 4.04228 19.5576 4.40235 19.9176C4.76242 20.2777 5.25078 20.48 5.76 20.48H7.68V12.8H5.76Z" fill="#1B1C1D"/>
<path d="M26.24 21.76H23.68C23.5102 21.76 23.3475 21.6926 23.2274 21.5726C23.1074 21.4525 23.04 21.2897 23.04 21.12V12.16C23.04 11.9903 23.1074 11.8275 23.2274 11.7075C23.3475 11.5874 23.5102 11.52 23.68 11.52H26.24C27.0887 11.52 27.9026 11.8571 28.5027 12.4573C29.1028 13.0574 29.44 13.8713 29.44 14.72V18.56C29.44 19.4087 29.1028 20.2226 28.5027 20.8227C27.9026 21.4229 27.0887 21.76 26.24 21.76ZM24.32 20.48H26.24C26.7492 20.48 27.2376 20.2777 27.5976 19.9176C27.9577 19.5576 28.16 19.0692 28.16 18.56V14.72C28.16 14.2108 27.9577 13.7224 27.5976 13.3624C27.2376 13.0023 26.7492 12.8 26.24 12.8H24.32V20.48Z" fill="#1B1C1D"/>
<path d="M23.9872 21.76H23.68C23.5102 21.76 23.3474 21.6926 23.2274 21.5725C23.1074 21.4525 23.04 21.2897 23.04 21.12V12.16C23.04 11.9903 23.1074 11.8275 23.2274 11.7075C23.3474 11.5874 23.5102 11.52 23.68 11.52H25.0368C24.381 9.6464 23.159 8.02296 21.54 6.87434C19.921 5.72573 17.985 5.10873 16 5.10873C14.0149 5.10873 12.0789 5.72573 10.4599 6.87434C8.84094 8.02296 7.61898 9.6464 6.96317 11.52H8.31997C8.48971 11.52 8.6525 11.5874 8.77252 11.7075C8.89254 11.8275 8.95997 11.9903 8.95997 12.16V21.12C8.95997 21.2897 8.89254 21.4525 8.77252 21.5725C8.6525 21.6926 8.48971 21.76 8.31997 21.76H8.01277V21.12H7.67997V12.8H6.09277C5.99624 12.799 5.90119 12.7761 5.81474 12.7331C5.7283 12.6901 5.65269 12.6282 5.59359 12.5518C5.53449 12.4755 5.49343 12.3868 5.47348 12.2923C5.45352 12.1979 5.4552 12.1001 5.47837 12.0064C6.08103 9.67415 7.44151 7.60824 9.34602 6.1333C11.2505 4.65837 13.5911 3.85802 16 3.85802C18.4088 3.85802 20.7494 4.65837 22.6539 6.1333C24.5584 7.60824 25.9189 9.67415 26.5216 12.0064C26.5447 12.1001 26.5464 12.1979 26.5265 12.2923C26.5065 12.3868 26.4654 12.4755 26.4063 12.5518C26.3472 12.6282 26.2716 12.6901 26.1852 12.7331C26.0988 12.7761 26.0037 12.799 25.9072 12.8H24.32V21.12H23.9872V21.76Z" fill="#1B1C1D"/>
<path d="M17.92 28.16C18.9804 28.16 19.84 27.3004 19.84 26.24C19.84 25.1796 18.9804 24.32 17.92 24.32C16.8596 24.32 16 25.1796 16 26.24C16 27.3004 16.8596 28.16 17.92 28.16Z" fill="white"/>
<path d="M17.92 28.8C17.4137 28.8 16.9187 28.6499 16.4977 28.3686C16.0767 28.0873 15.7486 27.6874 15.5549 27.2197C15.3611 26.7519 15.3104 26.2372 15.4092 25.7406C15.508 25.244 15.7518 24.7878 16.1098 24.4298C16.4678 24.0718 16.924 23.828 17.4206 23.7292C17.9171 23.6304 18.4319 23.6811 18.8997 23.8749C19.3674 24.0686 19.7673 24.3967 20.0485 24.8177C20.3298 25.2387 20.48 25.7337 20.48 26.24C20.48 26.9189 20.2103 27.5701 19.7302 28.0502C19.2501 28.5303 18.5989 28.8 17.92 28.8ZM17.92 24.96C17.6668 24.96 17.4194 25.0351 17.2089 25.1757C16.9984 25.3164 16.8343 25.5163 16.7374 25.7502C16.6405 25.9841 16.6152 26.2414 16.6646 26.4897C16.714 26.738 16.8359 26.9661 17.0149 27.1451C17.1939 27.3241 17.422 27.446 17.6703 27.4954C17.9186 27.5448 18.1759 27.5194 18.4098 27.4226C18.6437 27.3257 18.8436 27.1616 18.9843 26.9511C19.1249 26.7406 19.2 26.4932 19.2 26.24C19.2 25.9005 19.0651 25.5749 18.8251 25.3349C18.585 25.0949 18.2595 24.96 17.92 24.96Z" fill="#1B1C1D"/>
<path d="M21.12 26.88H19.84V25.6H21.12C22.3082 25.6 23.4477 25.128 24.2879 24.2878C25.128 23.4477 25.6 22.3082 25.6 21.12H26.88C26.8766 22.6466 26.2687 24.1097 25.1892 25.1892C24.1097 26.2687 22.6466 26.8766 21.12 26.88Z" fill="#1B1C1D"/>
</svg>
